<mxfile host="app.diagrams.net" modified="2023-03-07T02:45:49.366Z" agent="5.0 (Macintosh; Intel Mac OS X 10_15_7) AppleWebKit/537.36 (KHTML, like Gecko) Chrome/105.0.0.0 Safari/537.36" etag="jHVCyWg2pgJeDsxcXXK-" version="21.0.2" type="github">
  <diagram name="第 1 页" id="ym6dXgMok01F-MVRhuPN">
    <mxGraphModel dx="1074" dy="1935" grid="1" gridSize="10" guides="1" tooltips="1" connect="1" arrows="1" fold="1" page="1" pageScale="1" pageWidth="827" pageHeight="1169" background="none" math="0" shadow="0">
      <root>
        <mxCell id="0" />
        <mxCell id="1" parent="0" />
        <mxCell id="CX9QlCy-EnpkW9oprD4c-1" value="" style="rounded=1;whiteSpace=wrap;html=1;strokeWidth=2;fillWeight=4;hachureGap=8;hachureAngle=45;fillColor=#2FA1E2;sketch=1;gradientColor=none;" parent="1" vertex="1">
          <mxGeometry x="220" y="230" width="120" height="60" as="geometry" />
        </mxCell>
        <mxCell id="CX9QlCy-EnpkW9oprD4c-2" value="" style="rhombus;whiteSpace=wrap;html=1;strokeWidth=2;fillWeight=-1;hachureGap=8;fillStyle=cross-hatch;fillColor=#006600;sketch=1;" parent="1" vertex="1">
          <mxGeometry x="180" y="100" width="120" height="60" as="geometry" />
        </mxCell>
        <mxCell id="CX9QlCy-EnpkW9oprD4c-3" value="" style="shape=orEllipse;perimeter=ellipsePerimeter;whiteSpace=wrap;html=1;backgroundOutline=1;" parent="1" vertex="1">
          <mxGeometry x="240" y="370" width="80" height="80" as="geometry" />
        </mxCell>
        <mxCell id="CX9QlCy-EnpkW9oprD4c-4" value="Assets" style="childLayout=tableLayout;recursiveResize=0;strokeColor=#98bf21;fillColor=#A7C942;shadow=1;" parent="1" vertex="1">
          <mxGeometry x="440" y="170" width="390" height="266" as="geometry" />
        </mxCell>
        <mxCell id="CX9QlCy-EnpkW9oprD4c-5" style="shape=tableRow;horizontal=0;startSize=0;swimlaneHead=0;swimlaneBody=0;top=0;left=0;bottom=0;right=0;dropTarget=0;collapsible=0;recursiveResize=0;expand=0;fontStyle=0;strokeColor=inherit;fillColor=#ffffff;" parent="CX9QlCy-EnpkW9oprD4c-4" vertex="1">
          <mxGeometry width="390" height="64" as="geometry" />
        </mxCell>
        <mxCell id="CX9QlCy-EnpkW9oprD4c-6" value="Title 1" style="connectable=0;recursiveResize=0;strokeColor=inherit;fillColor=#A7C942;align=center;fontStyle=1;fontColor=#FFFFFF;html=1;" parent="CX9QlCy-EnpkW9oprD4c-5" vertex="1">
          <mxGeometry width="130" height="64" as="geometry">
            <mxRectangle width="130" height="64" as="alternateBounds" />
          </mxGeometry>
        </mxCell>
        <mxCell id="CX9QlCy-EnpkW9oprD4c-7" value="Title 2" style="connectable=0;recursiveResize=0;strokeColor=inherit;fillColor=#A7C942;align=center;fontStyle=1;fontColor=#FFFFFF;html=1;" parent="CX9QlCy-EnpkW9oprD4c-5" vertex="1">
          <mxGeometry x="130" width="130" height="64" as="geometry">
            <mxRectangle width="130" height="64" as="alternateBounds" />
          </mxGeometry>
        </mxCell>
        <mxCell id="CX9QlCy-EnpkW9oprD4c-8" value="Title 3" style="connectable=0;recursiveResize=0;strokeColor=inherit;fillColor=#A7C942;align=center;fontStyle=1;fontColor=#FFFFFF;html=1;" parent="CX9QlCy-EnpkW9oprD4c-5" vertex="1">
          <mxGeometry x="260" width="130" height="64" as="geometry">
            <mxRectangle width="130" height="64" as="alternateBounds" />
          </mxGeometry>
        </mxCell>
        <mxCell id="CX9QlCy-EnpkW9oprD4c-9" value="" style="shape=tableRow;horizontal=0;startSize=0;swimlaneHead=0;swimlaneBody=0;top=0;left=0;bottom=0;right=0;dropTarget=0;collapsible=0;recursiveResize=0;expand=0;fontStyle=0;strokeColor=inherit;fillColor=#ffffff;" parent="CX9QlCy-EnpkW9oprD4c-4" vertex="1">
          <mxGeometry y="64" width="390" height="62" as="geometry" />
        </mxCell>
        <mxCell id="CX9QlCy-EnpkW9oprD4c-10" value="Value 1" style="connectable=0;recursiveResize=0;strokeColor=inherit;fillColor=inherit;align=center;whiteSpace=wrap;html=1;" parent="CX9QlCy-EnpkW9oprD4c-9" vertex="1">
          <mxGeometry width="130" height="62" as="geometry">
            <mxRectangle width="130" height="62" as="alternateBounds" />
          </mxGeometry>
        </mxCell>
        <mxCell id="CX9QlCy-EnpkW9oprD4c-11" value="Value 2" style="connectable=0;recursiveResize=0;strokeColor=inherit;fillColor=inherit;align=center;whiteSpace=wrap;html=1;" parent="CX9QlCy-EnpkW9oprD4c-9" vertex="1">
          <mxGeometry x="130" width="130" height="62" as="geometry">
            <mxRectangle width="130" height="62" as="alternateBounds" />
          </mxGeometry>
        </mxCell>
        <mxCell id="CX9QlCy-EnpkW9oprD4c-12" value="Value 3" style="connectable=0;recursiveResize=0;strokeColor=inherit;fillColor=inherit;align=center;whiteSpace=wrap;html=1;" parent="CX9QlCy-EnpkW9oprD4c-9" vertex="1">
          <mxGeometry x="260" width="130" height="62" as="geometry">
            <mxRectangle width="130" height="62" as="alternateBounds" />
          </mxGeometry>
        </mxCell>
        <mxCell id="CX9QlCy-EnpkW9oprD4c-13" value="" style="shape=tableRow;horizontal=0;startSize=0;swimlaneHead=0;swimlaneBody=0;top=0;left=0;bottom=0;right=0;dropTarget=0;collapsible=0;recursiveResize=0;expand=0;fontStyle=1;strokeColor=inherit;fillColor=#EAF2D3;" parent="CX9QlCy-EnpkW9oprD4c-4" vertex="1">
          <mxGeometry y="126" width="390" height="60" as="geometry" />
        </mxCell>
        <mxCell id="CX9QlCy-EnpkW9oprD4c-14" value="Value 4" style="connectable=0;recursiveResize=0;strokeColor=inherit;fillColor=inherit;whiteSpace=wrap;html=1;" parent="CX9QlCy-EnpkW9oprD4c-13" vertex="1">
          <mxGeometry width="130" height="60" as="geometry">
            <mxRectangle width="130" height="60" as="alternateBounds" />
          </mxGeometry>
        </mxCell>
        <mxCell id="CX9QlCy-EnpkW9oprD4c-15" value="Value 5" style="connectable=0;recursiveResize=0;strokeColor=inherit;fillColor=inherit;whiteSpace=wrap;html=1;" parent="CX9QlCy-EnpkW9oprD4c-13" vertex="1">
          <mxGeometry x="130" width="130" height="60" as="geometry">
            <mxRectangle width="130" height="60" as="alternateBounds" />
          </mxGeometry>
        </mxCell>
        <mxCell id="CX9QlCy-EnpkW9oprD4c-16" value="Value 6" style="connectable=0;recursiveResize=0;strokeColor=inherit;fillColor=inherit;whiteSpace=wrap;html=1;" parent="CX9QlCy-EnpkW9oprD4c-13" vertex="1">
          <mxGeometry x="260" width="130" height="60" as="geometry">
            <mxRectangle width="130" height="60" as="alternateBounds" />
          </mxGeometry>
        </mxCell>
        <mxCell id="CX9QlCy-EnpkW9oprD4c-17" value="" style="shape=tableRow;horizontal=0;startSize=0;swimlaneHead=0;swimlaneBody=0;top=0;left=0;bottom=0;right=0;dropTarget=0;collapsible=0;recursiveResize=0;expand=0;fontStyle=0;strokeColor=inherit;fillColor=#ffffff;" parent="CX9QlCy-EnpkW9oprD4c-4" vertex="1">
          <mxGeometry y="186" width="390" height="20" as="geometry" />
        </mxCell>
        <mxCell id="CX9QlCy-EnpkW9oprD4c-18" value="Value 7" style="connectable=0;recursiveResize=0;strokeColor=inherit;fillColor=inherit;fontStyle=0;align=center;whiteSpace=wrap;html=1;" parent="CX9QlCy-EnpkW9oprD4c-17" vertex="1">
          <mxGeometry width="130" height="20" as="geometry">
            <mxRectangle width="130" height="20" as="alternateBounds" />
          </mxGeometry>
        </mxCell>
        <mxCell id="CX9QlCy-EnpkW9oprD4c-19" value="Value 8" style="connectable=0;recursiveResize=0;strokeColor=inherit;fillColor=inherit;fontStyle=0;align=center;whiteSpace=wrap;html=1;" parent="CX9QlCy-EnpkW9oprD4c-17" vertex="1">
          <mxGeometry x="130" width="130" height="20" as="geometry">
            <mxRectangle width="130" height="20" as="alternateBounds" />
          </mxGeometry>
        </mxCell>
        <mxCell id="CX9QlCy-EnpkW9oprD4c-20" value="Value 9" style="connectable=0;recursiveResize=0;strokeColor=inherit;fillColor=inherit;fontStyle=0;align=center;whiteSpace=wrap;html=1;" parent="CX9QlCy-EnpkW9oprD4c-17" vertex="1">
          <mxGeometry x="260" width="130" height="20" as="geometry">
            <mxRectangle width="130" height="20" as="alternateBounds" />
          </mxGeometry>
        </mxCell>
        <mxCell id="CX9QlCy-EnpkW9oprD4c-21" value="" style="shape=tableRow;horizontal=0;startSize=0;swimlaneHead=0;swimlaneBody=0;top=0;left=0;bottom=0;right=0;dropTarget=0;collapsible=0;recursiveResize=0;expand=0;fontStyle=1;strokeColor=inherit;fillColor=#EAF2D3;" parent="CX9QlCy-EnpkW9oprD4c-4" vertex="1">
          <mxGeometry y="206" width="390" height="60" as="geometry" />
        </mxCell>
        <mxCell id="CX9QlCy-EnpkW9oprD4c-22" value="Value 10" style="connectable=0;recursiveResize=0;strokeColor=inherit;fillColor=inherit;whiteSpace=wrap;html=1;" parent="CX9QlCy-EnpkW9oprD4c-21" vertex="1">
          <mxGeometry width="130" height="60" as="geometry">
            <mxRectangle width="130" height="60" as="alternateBounds" />
          </mxGeometry>
        </mxCell>
        <mxCell id="CX9QlCy-EnpkW9oprD4c-23" value="Value 11" style="connectable=0;recursiveResize=0;strokeColor=inherit;fillColor=inherit;whiteSpace=wrap;html=1;" parent="CX9QlCy-EnpkW9oprD4c-21" vertex="1">
          <mxGeometry x="130" width="130" height="60" as="geometry">
            <mxRectangle width="130" height="60" as="alternateBounds" />
          </mxGeometry>
        </mxCell>
        <mxCell id="CX9QlCy-EnpkW9oprD4c-24" value="Value 12" style="connectable=0;recursiveResize=0;strokeColor=inherit;fillColor=inherit;whiteSpace=wrap;html=1;" parent="CX9QlCy-EnpkW9oprD4c-21" vertex="1">
          <mxGeometry x="260" width="130" height="60" as="geometry">
            <mxRectangle width="130" height="60" as="alternateBounds" />
          </mxGeometry>
        </mxCell>
        <mxCell id="CX9QlCy-EnpkW9oprD4c-25" value="" style="rounded=1;whiteSpace=wrap;html=1;strokeWidth=1;fillWeight=4;hachureGap=8;hachureAngle=45;fillColor=#e1d5e7;sketch=1;strokeColor=#9673a6;" parent="1" vertex="1">
          <mxGeometry x="100" y="370" width="120" height="60" as="geometry" />
        </mxCell>
        <mxCell id="CX9QlCy-EnpkW9oprD4c-26" value="Icon" style="icon;html=1;image=img/clipart/Gear_128x128.png" parent="1" vertex="1">
          <mxGeometry x="160" y="555" width="60" height="60" as="geometry" />
        </mxCell>
        <mxCell id="CX9QlCy-EnpkW9oprD4c-27" value="Label" style="html=1;whiteSpace=wrap;container=1;recursiveResize=0;collapsible=0;sketch=1;curveFitting=1;jiggle=2;" parent="1" vertex="1">
          <mxGeometry x="250" y="480" width="160" height="70" as="geometry" />
        </mxCell>
        <mxCell id="CX9QlCy-EnpkW9oprD4c-28" value="" style="triangle;html=1;whiteSpace=wrap;" parent="CX9QlCy-EnpkW9oprD4c-27" vertex="1">
          <mxGeometry x="20" y="20" width="20" height="30" as="geometry" />
        </mxCell>
        <mxCell id="CX9QlCy-EnpkW9oprD4c-29" value="" style="html=1;shadow=0;dashed=0;align=center;verticalAlign=middle;shape=mxgraph.arrows2.bendDoubleArrow;dy=15;dx=38;arrowHead=55;rounded=0;" parent="1" vertex="1">
          <mxGeometry x="160" y="660" width="100" height="100" as="geometry" />
        </mxCell>
        <mxCell id="CX9QlCy-EnpkW9oprD4c-30" value="" style="strokeWidth=2;html=1;shape=mxgraph.flowchart.delay;whiteSpace=wrap;fillColor=#fff2cc;strokeColor=#d6b656;" parent="1" vertex="1">
          <mxGeometry x="410" y="615" width="100" height="60" as="geometry" />
        </mxCell>
        <mxCell id="CX9QlCy-EnpkW9oprD4c-31" value="" style="html=1;shadow=0;dashed=0;align=center;verticalAlign=middle;shape=mxgraph.arrows2.arrow;dy=0;dx=10;notch=0;" parent="1" vertex="1">
          <mxGeometry x="500" y="510" width="100" height="30" as="geometry" />
        </mxCell>
        <mxCell id="CX9QlCy-EnpkW9oprD4c-32" value="" style="edgeStyle=entityRelationEdgeStyle;fontSize=12;html=1;endArrow=ERmandOne;startArrow=ERmandOne;rounded=0;" parent="1" edge="1">
          <mxGeometry width="100" height="100" relative="1" as="geometry">
            <mxPoint x="230" y="850" as="sourcePoint" />
            <mxPoint x="330" y="750" as="targetPoint" />
          </mxGeometry>
        </mxCell>
        <mxCell id="CX9QlCy-EnpkW9oprD4c-33" value="package" style="shape=folder;fontStyle=1;spacingTop=10;tabWidth=40;tabHeight=14;tabPosition=left;html=1;whiteSpace=wrap;" parent="1" vertex="1">
          <mxGeometry x="295" y="600" width="70" height="50" as="geometry" />
        </mxCell>
        <mxCell id="CX9QlCy-EnpkW9oprD4c-34" value="" style="html=1;points=[];perimeter=orthogonalPerimeter;outlineConnect=0;targetShapes=umlLifeline;portConstraint=eastwest;newEdgeStyle={&quot;edgeStyle&quot;:&quot;elbowEdgeStyle&quot;,&quot;elbow&quot;:&quot;vertical&quot;,&quot;curved&quot;:0,&quot;rounded&quot;:0};fillStyle=cross-hatch;sketch=1;curveFitting=1;jiggle=2;shadow=0;" parent="1" vertex="1">
          <mxGeometry x="670" y="605" width="10" height="215" as="geometry" />
        </mxCell>
        <mxCell id="CX9QlCy-EnpkW9oprD4c-35" value="dispatch" style="html=1;verticalAlign=bottom;endArrow=block;edgeStyle=elbowEdgeStyle;elbow=vertical;curved=0;rounded=0;" parent="1" target="CX9QlCy-EnpkW9oprD4c-34" edge="1">
          <mxGeometry relative="1" as="geometry">
            <mxPoint x="510" y="605" as="sourcePoint" />
          </mxGeometry>
        </mxCell>
        <mxCell id="CX9QlCy-EnpkW9oprD4c-36" value="return" style="html=1;verticalAlign=bottom;endArrow=open;dashed=1;endSize=8;edgeStyle=elbowEdgeStyle;elbow=vertical;curved=0;rounded=0;" parent="1" source="CX9QlCy-EnpkW9oprD4c-34" edge="1">
          <mxGeometry relative="1" as="geometry">
            <mxPoint x="600" y="680" as="targetPoint" />
          </mxGeometry>
        </mxCell>
        <mxCell id="rYqpzue-Dt_-iDJ3GW1Y-1" value="" style="shape=table;startSize=0;container=1;collapsible=0;childLayout=tableLayout;fontSize=16;" vertex="1" parent="1">
          <mxGeometry x="380" y="-390" width="180" height="120" as="geometry" />
        </mxCell>
        <mxCell id="rYqpzue-Dt_-iDJ3GW1Y-2" value="" style="shape=tableRow;horizontal=0;startSize=0;swimlaneHead=0;swimlaneBody=0;strokeColor=inherit;top=0;left=0;bottom=0;right=0;collapsible=0;dropTarget=0;fillColor=none;points=[[0,0.5],[1,0.5]];portConstraint=eastwest;fontSize=16;" vertex="1" parent="rYqpzue-Dt_-iDJ3GW1Y-1">
          <mxGeometry width="180" height="40" as="geometry" />
        </mxCell>
        <mxCell id="rYqpzue-Dt_-iDJ3GW1Y-3" value="" style="shape=partialRectangle;html=1;whiteSpace=wrap;connectable=0;strokeColor=inherit;overflow=hidden;fillColor=none;top=0;left=0;bottom=0;right=0;pointerEvents=1;fontSize=16;" vertex="1" parent="rYqpzue-Dt_-iDJ3GW1Y-2">
          <mxGeometry width="60" height="40" as="geometry">
            <mxRectangle width="60" height="40" as="alternateBounds" />
          </mxGeometry>
        </mxCell>
        <mxCell id="rYqpzue-Dt_-iDJ3GW1Y-4" value="" style="shape=partialRectangle;html=1;whiteSpace=wrap;connectable=0;strokeColor=inherit;overflow=hidden;fillColor=none;top=0;left=0;bottom=0;right=0;pointerEvents=1;fontSize=16;" vertex="1" parent="rYqpzue-Dt_-iDJ3GW1Y-2">
          <mxGeometry x="60" width="60" height="40" as="geometry">
            <mxRectangle width="60" height="40" as="alternateBounds" />
          </mxGeometry>
        </mxCell>
        <mxCell id="rYqpzue-Dt_-iDJ3GW1Y-5" value="" style="shape=partialRectangle;html=1;whiteSpace=wrap;connectable=0;strokeColor=inherit;overflow=hidden;fillColor=none;top=0;left=0;bottom=0;right=0;pointerEvents=1;fontSize=16;" vertex="1" parent="rYqpzue-Dt_-iDJ3GW1Y-2">
          <mxGeometry x="120" width="60" height="40" as="geometry">
            <mxRectangle width="60" height="40" as="alternateBounds" />
          </mxGeometry>
        </mxCell>
        <mxCell id="rYqpzue-Dt_-iDJ3GW1Y-6" value="" style="shape=tableRow;horizontal=0;startSize=0;swimlaneHead=0;swimlaneBody=0;strokeColor=inherit;top=0;left=0;bottom=0;right=0;collapsible=0;dropTarget=0;fillColor=none;points=[[0,0.5],[1,0.5]];portConstraint=eastwest;fontSize=16;" vertex="1" parent="rYqpzue-Dt_-iDJ3GW1Y-1">
          <mxGeometry y="40" width="180" height="40" as="geometry" />
        </mxCell>
        <mxCell id="rYqpzue-Dt_-iDJ3GW1Y-7" value="" style="shape=partialRectangle;html=1;whiteSpace=wrap;connectable=0;strokeColor=inherit;overflow=hidden;fillColor=none;top=0;left=0;bottom=0;right=0;pointerEvents=1;fontSize=16;" vertex="1" parent="rYqpzue-Dt_-iDJ3GW1Y-6">
          <mxGeometry width="60" height="40" as="geometry">
            <mxRectangle width="60" height="40" as="alternateBounds" />
          </mxGeometry>
        </mxCell>
        <mxCell id="rYqpzue-Dt_-iDJ3GW1Y-8" value="" style="shape=partialRectangle;html=1;whiteSpace=wrap;connectable=0;strokeColor=inherit;overflow=hidden;fillColor=none;top=0;left=0;bottom=0;right=0;pointerEvents=1;fontSize=16;" vertex="1" parent="rYqpzue-Dt_-iDJ3GW1Y-6">
          <mxGeometry x="60" width="60" height="40" as="geometry">
            <mxRectangle width="60" height="40" as="alternateBounds" />
          </mxGeometry>
        </mxCell>
        <mxCell id="rYqpzue-Dt_-iDJ3GW1Y-9" value="" style="shape=partialRectangle;html=1;whiteSpace=wrap;connectable=0;strokeColor=inherit;overflow=hidden;fillColor=none;top=0;left=0;bottom=0;right=0;pointerEvents=1;fontSize=16;" vertex="1" parent="rYqpzue-Dt_-iDJ3GW1Y-6">
          <mxGeometry x="120" width="60" height="40" as="geometry">
            <mxRectangle width="60" height="40" as="alternateBounds" />
          </mxGeometry>
        </mxCell>
        <mxCell id="rYqpzue-Dt_-iDJ3GW1Y-10" value="" style="shape=tableRow;horizontal=0;startSize=0;swimlaneHead=0;swimlaneBody=0;strokeColor=inherit;top=0;left=0;bottom=0;right=0;collapsible=0;dropTarget=0;fillColor=none;points=[[0,0.5],[1,0.5]];portConstraint=eastwest;fontSize=16;" vertex="1" parent="rYqpzue-Dt_-iDJ3GW1Y-1">
          <mxGeometry y="80" width="180" height="40" as="geometry" />
        </mxCell>
        <mxCell id="rYqpzue-Dt_-iDJ3GW1Y-11" value="" style="shape=partialRectangle;html=1;whiteSpace=wrap;connectable=0;strokeColor=inherit;overflow=hidden;fillColor=none;top=0;left=0;bottom=0;right=0;pointerEvents=1;fontSize=16;" vertex="1" parent="rYqpzue-Dt_-iDJ3GW1Y-10">
          <mxGeometry width="60" height="40" as="geometry">
            <mxRectangle width="60" height="40" as="alternateBounds" />
          </mxGeometry>
        </mxCell>
        <mxCell id="rYqpzue-Dt_-iDJ3GW1Y-12" value="" style="shape=partialRectangle;html=1;whiteSpace=wrap;connectable=0;strokeColor=inherit;overflow=hidden;fillColor=none;top=0;left=0;bottom=0;right=0;pointerEvents=1;fontSize=16;" vertex="1" parent="rYqpzue-Dt_-iDJ3GW1Y-10">
          <mxGeometry x="60" width="60" height="40" as="geometry">
            <mxRectangle width="60" height="40" as="alternateBounds" />
          </mxGeometry>
        </mxCell>
        <mxCell id="rYqpzue-Dt_-iDJ3GW1Y-13" value="" style="shape=partialRectangle;html=1;whiteSpace=wrap;connectable=0;strokeColor=inherit;overflow=hidden;fillColor=none;top=0;left=0;bottom=0;right=0;pointerEvents=1;fontSize=16;" vertex="1" parent="rYqpzue-Dt_-iDJ3GW1Y-10">
          <mxGeometry x="120" width="60" height="40" as="geometry">
            <mxRectangle width="60" height="40" as="alternateBounds" />
          </mxGeometry>
        </mxCell>
      </root>
    </mxGraphModel>
  </diagram>
</mxfile>
